<?xml version="1.0" encoding="UTF-8"?>
<svg width="24px" height="24px" fill="#80cc28" version="1.1" viewBox="0 -960 960 960" xml:space="preserve" xmlns="http://www.w3.org/2000/svg" xmlns:xlink="http://www.w3.org/1999/xlink"><g transform="translate(0 -56.779)" opacity=".8" stroke-width="10.273"><g transform="matrix(3.8938 0 0 3.8938 4.9558 -154.55)" opacity=".50435"><path transform="translate(0,-192)" d="m219.25 10s-24.25 9-31.75 10.5-21 5.25-21 5.25-9.75-4.25-22-8.5-29.75-5.5-29.75-5.5-3.25 3.5-22 8c-18.75 4.5-27.5 5.75-27.5 5.75s-18.5-9-31.5-11.5-24-2-24.75-1.75c0 0 7.5 13 11.75 27.75s6.25 25.5 6.25 25.5l51.469 5.125 48.969-4 52.25 12.031c10.386-4.4178 52.117-4.9005 55.312-13.156 0 0-4.75-15.25-7.5-29.75s-8.25-25.75-8.25-25.75z" fill="#b1e479"/><path transform="translate(0,-192)" d="m27 65.5s-5.5 12.75-8.25 24.75-5.75 23-5.75 23l50.969 16.375 53.719-15.75 52.25 17.531c16.365-4.2566 32.397-9.1182 48.062-15.406 0 0 1.75-10.5 6.75-23.75s10.25-26.75 10.25-26.75c-3.1958 8.2558-44.927 8.7385-55.312 13.156l-52.25-12.031-47.969 4z" fill="#87d531"/><path transform="translate(0,-192)" d="m231.75 165.5c-17.899 7.6712-35.943 14.904-54.312 21.406l-52.25-18.531-50.219 9-48.969-9.875s-4 10.25-7.5 24.25-5 30.75-5 30.75 9.25-2 28.5 1.25 32.25 6 32.25 6 12.75-2.75 24-6.25c11.25-3.5 16.25-6.5 16.25-6.5s5.5 0.5 22.5 6.25 29.25 8.5 29.25 8.5 13-2.75 26-5.75 26.5-8 26.5-8-0.75-5 4.25-24.5 8.75-28 8.75-28z" fill="#ceeeab"/><path transform="translate(0,-192)" d="m13 113.25s5.75 16 9.25 30 3.75 24.25 3.75 24.25l48.969 9.875 50.219-9 52.25 18.531c18.369-6.5022 36.413-13.735 54.312-21.406 0 0-0.5-4.5-3.75-19.75s-10-29.75-10-29.75c-15.666 6.288-31.698 11.15-48.062 15.406l-52.25-17.531-53.719 15.75z" fill="#b9e787"/></g><g transform="matrix(3.8938 0 0 3.8938 4.9558 -855.43)" opacity=".52174"><path d="m13.719 0.03125c-2.729-7e-3 -4.4375 0.125-4.7188 0.21875 0 0 7.5 13 11.75 27.75s6.25 25.5 6.25 25.5-5.5 12.75-8.25 24.75-5.75 23-5.75 23 5.75 16 9.25 30 3.75 24.25 3.75 24.25-4 10.25-7.5 24.25-5 30.75-5 30.75 9.25-2 28.5 1.25 32.25 6 32.25 6l1.5-53.25-12.25-46.5 16-59.75c-2.2202-15.48-9.0677-30.046-14.25-44.75 0 0-18.5-9-31.5-11.5-8.125-1.5625-15.483-1.9565-20.031-1.9688z" fill="#83d32b"/><path d="m114.75-0.25s-3.25 3.5-22 8-27.5 5.75-27.5 5.75c5.1823 14.704 12.03 29.27 14.25 44.75l-16 59.75 12.25 46.5-1.5 53.25s12.75-2.75 24-6.25 16.25-6.5 16.25-6.5l11.25-48.5-8.25-54.25 11.75-45c-3.4397-9.7268-8.0645-56.93-14.5-57.5z" fill="#b1e479"/><path d="m219.25-2s-24.25 9-31.75 10.5-21 5.25-21 5.25c4.924-1.3583 11.437 45.392 14.25 52.25l-11.25 53.25 9.5 55-12.75 45.5s13-2.75 26-5.75 26.5-8 26.5-8-0.75-5 4.25-24.5 8.75-28 8.75-28-0.5-4.5-3.75-19.75-10-29.75-10-29.75 1.75-10.5 6.75-23.75 10.25-26.75 10.25-26.75-4.75-15.25-7.5-29.75-8.25-25.75-8.25-25.75z" fill="#a4df62"/><path d="m114.75-0.25c6.4355 0.57024 11.06 47.773 14.5 57.5l-11.75 45 8.25 53.25-11.25 49.5s5.5 0.5 22.5 6.25 29.25 8.5 29.25 8.5l12.75-45.5-9.5-55 11.25-53.25c-2.8132-6.8575-9.326-53.608-14.25-52.25 0 0-9.75-4.25-22-8.5s-29.75-5.5-29.75-5.5z" fill="#ceeeab"/></g></g><g fill="#80cc28"><path d="m784-120-252-252q-30 24-69 38t-83 14q-109 0-184.5-75.5t-75.5-184.5 75.5-184.5 184.5-75.5 184.5 75.5 75.5 184.5q0 44-14 83t-38 69l252 252zm-404-280q75 0 127.5-52.5t52.5-127.5-52.5-127.5-127.5-52.5-127.5 52.5-52.5 127.5 52.5 127.5 127.5 52.5z"/></g></svg>
